<?xml version="1.0" standalone="no"?>
<!DOCTYPE svg PUBLIC "-//W3C//DTD SVG 20010904//EN"
 "http://www.w3.org/TR/2001/REC-SVG-20010904/DTD/svg10.dtd">
<svg version="1.0" xmlns="http://www.w3.org/2000/svg"
 width="526.000000pt" height="269.000000pt" viewBox="0 0 526.000000 269.000000"
 preserveAspectRatio="xMidYMid meet">

<g transform="translate(0.000000,269.000000) scale(0.100000,-0.100000)"
fill="#000000" stroke="none">
<path d="M335 2348 c-3 -7 -4 -443 -3 -968 l3 -955 2268 -3 2267 -2 0 970 0
970 -2265 0 c-1803 0 -2267 -3 -2270 -12z m597 -563 l3 -254 193 254 193 255
160 0 c125 0 159 -3 153 -12 -4 -7 -87 -118 -183 -247 -97 -128 -175 -237
-174 -241 2 -7 312 -595 384 -727 l40 -73 -159 0 -158 0 -144 278 c-79 152
-147 282 -153 289 -6 9 -30 -15 -83 -82 l-74 -93 0 -196 0 -196 -140 0 -140 0
0 650 0 650 140 0 140 0 2 -255z m1268 -395 l0 -650 -140 0 -140 0 0 650 0
650 140 0 140 0 0 -650z m1140 530 l0 -120 -165 0 -165 0 0 -530 0 -530 -140
0 -140 0 0 530 0 530 -162 2 -163 3 -3 118 -3 117 471 0 470 0 0 -120z m500
-130 l0 -250 220 0 220 0 0 250 0 250 140 0 140 0 0 -650 0 -650 -140 0 -140
0 0 270 0 270 -220 0 -220 0 0 -270 0 -270 -140 0 -140 0 0 650 0 650 140 0
140 0 0 -250z"/>
</g>
</svg>
