<svg width="374.28" height="115.89" xmlns="http://www.w3.org/2000/svg" xml:space="preserve" version="1.1">
 <g id="Layer_1">
  <title>Layer 1</title>
  <g id="svg_1">
   <g id="svg_14">
    <g id="svg_13">
     <path id="svg_1" d="m196.20701,110.76471c-0.03,-0.8 0.06,-1.71 0.26,-2.71c-0.77,0.94 -1.68,1.68 -2.73,2.21s-2.2,0.79 -3.43,0.78c-1.24,0 -2.23,-0.38 -2.97,-1.15c-0.74,-0.77 -1.02,-1.73 -0.84,-2.88c0.23,-1.4 1,-2.49 2.32,-3.27c1.32,-0.79 2.99,-1.2 5.02,-1.25l3.52,0l0.4,-2.16c0.19,-1.21 -0.05,-2.17 -0.73,-2.87c-0.68,-0.7 -1.65,-1.05 -2.92,-1.05c-1.24,0 -2.37,0.33 -3.37,0.99c-1,0.66 -1.63,1.53 -1.89,2.61l-0.74,-0.03c0.26,-1.27 0.96,-2.31 2.11,-3.11c1.15,-0.8 2.45,-1.21 3.89,-1.21c1.51,0 2.66,0.43 3.47,1.28c0.8,0.85 1.1,1.99 0.89,3.4l-1.36,7.92l-0.1,0.93c-0.05,0.48 -0.03,0.96 0.05,1.44l-0.01,0.12l-0.84,0l0,0.01zm-5.92,-0.47c1.22,0.02 2.39,-0.28 3.49,-0.88c1.11,-0.61 2.05,-1.5 2.82,-2.66l0.63,-3.52l-3.32,0c-1.85,0.04 -3.37,0.39 -4.57,1.06c-1.2,0.67 -1.91,1.59 -2.13,2.76c-0.16,0.9 0.05,1.67 0.65,2.29c0.61,0.61 1.42,0.93 2.43,0.95z"/>
     <path id="svg_2" d="m202.22701,110.76471l-0.74,0l3.62,-21.04l0.74,0l-3.62,21.04z"/>
     <path id="svg_3" d="m207.96701,110.76471l-0.74,0l3.62,-21.04l0.74,0l-3.62,21.04z"/>
     <path id="svg_4" d="m220.34701,110.76471l-0.74,0l2.55,-14.82l0.74,0l-2.55,14.82zm2.25,-19.49c0.03,-0.18 0.13,-0.35 0.29,-0.51c0.17,-0.16 0.35,-0.23 0.54,-0.23c0.21,0 0.38,0.08 0.51,0.25c0.13,0.16 0.18,0.35 0.14,0.55c-0.03,0.18 -0.13,0.35 -0.3,0.5c-0.17,0.15 -0.36,0.23 -0.55,0.23c-0.21,-0.01 -0.38,-0.09 -0.51,-0.25c-0.11,-0.16 -0.16,-0.34 -0.12,-0.54z"/>
     <path id="svg_5" d="m227.81701,99.38471c0.74,-1.2 1.61,-2.12 2.62,-2.76c1,-0.64 2.04,-0.97 3.11,-0.97c1.13,0 2.02,0.29 2.67,0.88c0.65,0.58 1.02,1.43 1.12,2.53c0.05,0.69 0.02,1.42 -0.11,2.18l-1.64,9.51l-0.74,0l1.64,-9.5c0.11,-0.64 0.16,-1.27 0.14,-1.89c-0.05,-0.97 -0.33,-1.71 -0.86,-2.22c-0.53,-0.51 -1.28,-0.76 -2.25,-0.75c-1.25,0.02 -2.45,0.5 -3.61,1.46c-1.16,0.95 -1.94,2.09 -2.35,3.41l-1.64,9.49l-0.74,0l2.55,-14.82l0.74,0l-0.65,3.45z"/>
     <path id="svg_6" d="m247.07701,103.06471c0.23,-1.38 0.69,-2.63 1.38,-3.77c0.69,-1.13 1.56,-2.02 2.6,-2.66c1.04,-0.64 2.18,-0.97 3.41,-0.97c1,0 1.9,0.22 2.67,0.67c0.78,0.45 1.39,1.11 1.85,1.99c0.46,0.88 0.72,1.86 0.78,2.92c0.03,0.62 -0.03,1.42 -0.16,2.38c-0.23,1.38 -0.69,2.64 -1.39,3.78c-0.7,1.14 -1.57,2.03 -2.6,2.66c-1.04,0.63 -2.17,0.95 -3.39,0.95c-1.01,0 -1.91,-0.23 -2.68,-0.68c-0.77,-0.45 -1.39,-1.11 -1.85,-1.99c-0.46,-0.87 -0.72,-1.85 -0.77,-2.94c-0.03,-0.59 0.02,-1.38 0.15,-2.34zm0.65,2.93c0.18,1.32 0.67,2.37 1.47,3.14c0.79,0.77 1.8,1.16 3.03,1.16c1.43,0 2.73,-0.5 3.88,-1.51c1.16,-1 1.99,-2.36 2.5,-4.07c0.42,-1.42 0.54,-2.75 0.37,-4.01c-0.2,-1.32 -0.7,-2.37 -1.49,-3.14c-0.79,-0.77 -1.79,-1.16 -2.99,-1.16c-1.43,0 -2.73,0.51 -3.89,1.53c-1.16,1.02 -2,2.37 -2.51,4.05c-0.42,1.39 -0.55,2.73 -0.37,4.01z"/>
     <path id="svg_7" d="m264.60701,99.38471c0.74,-1.2 1.61,-2.12 2.62,-2.76c1,-0.64 2.04,-0.97 3.11,-0.97c1.13,0 2.02,0.29 2.67,0.88c0.65,0.58 1.02,1.43 1.12,2.53c0.05,0.69 0.02,1.42 -0.11,2.18l-1.64,9.51l-0.74,0l1.64,-9.5c0.11,-0.64 0.16,-1.27 0.14,-1.89c-0.05,-0.97 -0.33,-1.71 -0.86,-2.22c-0.53,-0.51 -1.28,-0.76 -2.25,-0.75c-1.25,0.02 -2.45,0.5 -3.61,1.46c-1.16,0.95 -1.94,2.09 -2.35,3.41l-1.64,9.49l-0.74,0l2.55,-14.82l0.74,0l-0.65,3.45z"/>
     <path id="svg_8" d="m282.39701,111.03471c-1.19,0 -2.21,-0.33 -3.07,-1c-0.86,-0.67 -1.48,-1.58 -1.86,-2.73c-0.38,-1.16 -0.48,-2.37 -0.29,-3.64l0.11,-0.68c0.22,-1.33 0.69,-2.58 1.4,-3.74c0.72,-1.16 1.57,-2.05 2.56,-2.66c0.99,-0.61 2.04,-0.92 3.16,-0.92c1.5,0 2.67,0.55 3.52,1.66c0.85,1.11 1.21,2.52 1.08,4.25l-0.04,0.42l-0.12,0.86l-10.77,0l-0.15,0.81c-0.13,0.77 -0.13,1.54 -0.01,2.32c0.2,1.3 0.7,2.35 1.5,3.12c0.8,0.78 1.79,1.17 2.97,1.18c1.71,0.02 3.25,-0.65 4.62,-2.01l0.49,0.38c-1.35,1.59 -3.05,2.38 -5.1,2.38zm2.02,-14.63c-1.41,0 -2.66,0.53 -3.77,1.58c-1.11,1.05 -1.93,2.43 -2.47,4.13l10,0l0.04,-0.18c0.12,-0.66 0.13,-1.32 0.03,-1.97c-0.16,-1.08 -0.59,-1.94 -1.28,-2.59c-0.7,-0.65 -1.55,-0.97 -2.55,-0.97z"/>
     <path id="svg_9" d="m302.35701,91.93471l-0.68,4l3.25,0l-0.1,0.74l-3.29,0l-1.88,10.86l-0.05,0.75c-0.03,0.62 0.1,1.11 0.38,1.46c0.28,0.35 0.71,0.53 1.29,0.54c0.26,0 0.75,-0.04 1.49,-0.12l0.03,0.7c-0.42,0.11 -0.92,0.16 -1.49,0.16c-1.55,0 -2.36,-0.8 -2.43,-2.4c-0.02,-0.47 0.01,-0.94 0.1,-1.43l1.81,-10.53l-2.64,0l0.11,-0.74l2.67,0l0.68,-4l0.75,0l0,0.01z"/>
     <path id="svg_10" d="m306.19701,103.06471c0.23,-1.38 0.69,-2.63 1.38,-3.77c0.69,-1.13 1.56,-2.02 2.6,-2.66c1.04,-0.64 2.18,-0.97 3.41,-0.97c1,0 1.9,0.22 2.67,0.67c0.78,0.45 1.39,1.11 1.85,1.99c0.46,0.88 0.72,1.86 0.78,2.92c0.03,0.62 -0.03,1.42 -0.16,2.38c-0.23,1.38 -0.69,2.64 -1.39,3.78c-0.7,1.14 -1.57,2.03 -2.6,2.66c-1.04,0.63 -2.17,0.95 -3.39,0.95c-1.01,0 -1.91,-0.23 -2.68,-0.68c-0.77,-0.45 -1.39,-1.11 -1.85,-1.99c-0.46,-0.87 -0.72,-1.85 -0.77,-2.94c-0.04,-0.59 0.01,-1.38 0.15,-2.34zm0.64,2.93c0.18,1.32 0.67,2.37 1.47,3.14c0.79,0.77 1.8,1.16 3.03,1.16c1.43,0 2.73,-0.5 3.88,-1.51c1.16,-1 1.99,-2.36 2.5,-4.07c0.42,-1.42 0.54,-2.75 0.37,-4.01c-0.2,-1.32 -0.7,-2.37 -1.49,-3.14c-0.79,-0.77 -1.79,-1.16 -2.99,-1.16c-1.43,0 -2.73,0.51 -3.89,1.53c-1.16,1.02 -2,2.37 -2.51,4.05c-0.42,1.39 -0.54,2.73 -0.37,4.01z"/>
     <path id="svg_11" d="m321.30701,103.06471c0.23,-1.38 0.69,-2.63 1.38,-3.77s1.56,-2.02 2.6,-2.66c1.04,-0.64 2.18,-0.97 3.41,-0.97c1,0 1.9,0.22 2.67,0.67c0.78,0.45 1.39,1.11 1.85,1.99c0.46,0.88 0.72,1.86 0.78,2.92c0.03,0.62 -0.03,1.42 -0.16,2.38c-0.23,1.38 -0.69,2.64 -1.39,3.78c-0.7,1.14 -1.57,2.03 -2.6,2.66c-1.04,0.63 -2.17,0.95 -3.39,0.95c-1.01,0 -1.91,-0.23 -2.68,-0.68c-0.77,-0.45 -1.39,-1.11 -1.85,-1.99c-0.46,-0.87 -0.72,-1.85 -0.77,-2.94c-0.04,-0.59 0.01,-1.38 0.15,-2.34zm0.65,2.93c0.18,1.32 0.67,2.37 1.47,3.14c0.79,0.77 1.8,1.16 3.03,1.16c1.43,0 2.73,-0.5 3.88,-1.51c1.16,-1 1.99,-2.36 2.5,-4.07c0.42,-1.42 0.54,-2.75 0.37,-4.01c-0.2,-1.32 -0.7,-2.37 -1.49,-3.14c-0.79,-0.77 -1.79,-1.16 -2.99,-1.16c-1.43,0 -2.73,0.51 -3.89,1.53c-1.16,1.02 -2,2.37 -2.51,4.05c-0.43,1.39 -0.55,2.73 -0.37,4.01z"/>
     <path id="svg_12" d="m337.10701,110.76471l-0.74,0l3.62,-21.04l0.74,0l-3.62,21.04z"/>
    </g>
   </g>
   <g id="svg_22">
    <path id="svg_15" d="m1.37701,81.03471l12.99,-75.04l22.06,0.05c6.49,0 12.16,1.71 17.01,5.13c4.84,3.42 8.28,8.08 10.31,13.99c1.75,5.19 2.28,10.79 1.6,16.8l-0.36,3.14c-0.93,6.73 -3.16,12.83 -6.7,18.3c-3.54,5.46 -8.09,9.75 -13.66,12.86c-5.57,3.11 -11.58,4.7 -18.04,4.77l-25.21,0zm28.25,-61.12l-8.19,47.16l5.15,0.05c6.05,0 10.9,-2.34 14.56,-7.01c3.66,-4.67 5.83,-11.82 6.52,-21.44l0.1,-1.7c0.24,-5.5 -0.62,-9.67 -2.58,-12.52c-1.96,-2.85 -4.9,-4.35 -8.81,-4.48l-6.75,-0.06z"/>
    <path id="svg_16" d="m95.02701,82.06471c-4.98,-0.03 -9.42,-1.21 -13.32,-3.53c-3.9,-2.32 -6.85,-5.55 -8.84,-9.69c-1.99,-4.14 -2.78,-8.7 -2.37,-13.68l0.15,-1.44c0.93,-9.17 4.11,-16.43 9.56,-21.77c5.45,-5.34 12.12,-7.91 20.02,-7.7c4.78,0.07 8.86,1.28 12.27,3.64c3.4,2.36 5.89,5.61 7.47,9.75c1.58,4.15 2.1,8.8 1.55,13.96l-0.98,7.07l-33.19,0c0.07,2.92 0.89,5.29 2.47,7.11c1.58,1.82 3.88,2.78 6.91,2.89c4.91,0.14 9.33,-1.75 13.24,-5.67l7.11,9.41c-2.1,2.98 -5.02,5.32 -8.79,7.02c-3.76,1.7 -7.88,2.58 -12.34,2.65l-0.92,0l0,-0.02zm4.12,-44.43c-2.41,-0.07 -4.49,0.68 -6.26,2.26c-1.77,1.57 -3.31,4.21 -4.61,7.9l16.96,0l0.31,-1.49c0.21,-1.2 0.24,-2.32 0.1,-3.38c-0.59,-3.42 -2.76,-5.18 -6.5,-5.29z"/>
    <path id="svg_17" d="m126.45701,53.04471c0.65,-5.6 2.19,-10.67 4.61,-15.2c2.42,-4.54 5.45,-7.96 9.1,-10.28c3.64,-2.32 7.76,-3.44 12.37,-3.38c5.6,0.14 9.83,2.15 12.68,6.03l1.8,-5l15.67,0.05l-9.12,53.6c-1.03,7.56 -4.35,13.52 -9.95,17.88c-5.6,4.36 -12.57,6.44 -20.92,6.24c-3.71,-0.07 -7.3,-0.81 -10.77,-2.22c-3.47,-1.41 -6.44,-3.54 -8.92,-6.39l8.04,-10c2.99,3.78 6.87,5.72 11.65,5.82c7.52,0.14 12.3,-3.87 14.33,-12.01l0.41,-1.7c-3.85,3.78 -8.09,5.63 -12.73,5.57c-3.57,-0.03 -6.72,-0.94 -9.43,-2.71c-2.71,-1.77 -4.84,-4.32 -6.39,-7.65c-1.55,-3.33 -2.42,-7.04 -2.63,-11.13c-0.14,-2.05 -0.07,-4.56 0.2,-7.52zm16.75,5.52c0,3.16 0.57,5.62 1.7,7.37c1.13,1.75 2.78,2.66 4.95,2.73c3.2,0.14 6.1,-1.1 8.71,-3.71l4.38,-23.66c-1.37,-2.4 -3.68,-3.64 -6.91,-3.71c-3.3,-0.07 -6.06,1.33 -8.3,4.2c-2.23,2.87 -3.64,6.64 -4.23,11.31c-0.19,2.17 -0.3,3.99 -0.3,5.47z"/>
    <path id="svg_18" d="m215.51701,24.23471c4.98,0.07 9.29,1.31 12.94,3.74c3.64,2.42 6.31,5.8 8.01,10.13c1.7,4.33 2.31,9.14 1.83,14.43l-0.1,1.13c-0.96,8.56 -4.14,15.46 -9.53,20.72c-5.39,5.26 -12.06,7.82 -20,7.68c-4.95,-0.07 -9.23,-1.3 -12.83,-3.68c-3.61,-2.39 -6.28,-5.73 -8.01,-10.02c-1.74,-4.29 -2.36,-9.07 -1.88,-14.33c0.86,-9.14 3.99,-16.42 9.41,-21.85c5.39,-5.44 12.12,-8.08 20.16,-7.95zm-12.63,29.82l-0.15,3.04c-0.48,7.65 1.86,11.54 7.01,11.68c6.67,0.21 10.53,-5.2 11.6,-16.21l0.21,-4.68c0.07,-3.09 -0.51,-5.55 -1.73,-7.38c-1.22,-1.83 -3.01,-2.79 -5.39,-2.86c-3.13,-0.1 -5.69,1.17 -7.7,3.83c-2.02,2.66 -3.3,6.85 -3.85,12.58z"/>
    <path id="svg_19" d="m272.46701,65.05471c0.45,-2.27 -1.31,-3.97 -5.26,-5.1l-3.66,-0.93c-5.98,-1.58 -10.36,-3.8 -13.14,-6.65c-2.78,-2.85 -4.09,-6.24 -3.92,-10.15c0.17,-5.36 2.55,-9.71 7.14,-13.06c4.59,-3.35 10.18,-4.99 16.78,-4.92c6.56,0.07 11.88,1.74 15.95,5c4.07,3.26 6.14,7.66 6.21,13.19l-16.9,-0.05c0.14,-4.4 -1.8,-6.6 -5.82,-6.6c-1.72,0 -3.32,0.51 -4.79,1.52c-1.48,1.01 -2.35,2.36 -2.63,4.05c-0.58,2.78 1.87,4.69 7.37,5.72c4.78,1.13 8.47,2.45 11.08,3.94c2.61,1.49 4.6,3.34 5.98,5.54c1.37,2.2 2.01,4.84 1.91,7.94c-0.1,3.37 -1.2,6.37 -3.3,9.02c-2.1,2.65 -5.13,4.76 -9.1,6.34c-3.97,1.58 -8.27,2.32 -12.91,2.22c-4.02,-0.03 -7.76,-0.88 -11.21,-2.53c-3.45,-1.65 -6.15,-3.89 -8.09,-6.73c-1.94,-2.83 -2.95,-6.09 -3.01,-9.77l15.77,0.1c0.07,4.95 2.54,7.39 7.42,7.32c2.1,0 3.88,-0.47 5.36,-1.42c1.46,-0.94 2.39,-2.27 2.77,-3.99z"/>
    <path id="svg_20" d="m318.53701,31.35471c4.16,-4.84 8.95,-7.23 14.38,-7.16c5.6,0.14 9.75,2.18 12.45,6.13c2.7,3.95 3.67,9.31 2.91,16.08l-5.77,34.63l-16.96,0l5.82,-34.88c0.14,-1.17 0.17,-2.27 0.1,-3.3c-0.24,-3.41 -2.13,-5.16 -5.67,-5.26c-3.06,-0.07 -5.77,1.05 -8.14,3.35l-7.11,40.09l-16.96,0l13.76,-79.16l16.96,0l-5.77,29.48z"/>
    <path id="svg_21" d="m354.92701,73.19471c-0.07,-2.61 0.82,-4.78 2.68,-6.49c1.86,-1.72 4.07,-2.58 6.65,-2.58c2.54,0 4.71,0.78 6.49,2.35c1.79,1.56 2.71,3.6 2.78,6.11c0.07,2.58 -0.81,4.73 -2.63,6.47c-1.82,1.74 -4.05,2.6 -6.7,2.6c-2.61,0 -4.79,-0.79 -6.55,-2.37c-1.74,-1.58 -2.65,-3.61 -2.72,-6.09z"/>
   </g>
  </g>
 </g>
</svg>