<svg width="120" height="51" viewBox="0 0 261 51" fill="none" xmlns="http://www.w3.org/2000/svg">
<path d="M0.585083 50V1.1H14.0851C17.6351 1.1 20.8601 1.575 23.7601 2.525C26.6601 3.475 29.1351 4.95 31.1851 6.95C33.2351 8.9 34.8101 11.4 35.9101 14.45C37.0601 17.5 37.6351 21.125 37.6351 25.325C37.6351 29.525 37.0851 33.175 35.9851 36.275C34.8851 39.375 33.3101 41.95 31.2601 44C29.2601 46 26.8601 47.5 24.0601 48.5C21.2601 49.5 18.1601 50 14.7601 50H0.585083ZM11.6851 41.075H13.4851C15.3851 41.075 17.1101 40.8 18.6601 40.25C20.2601 39.7 21.6101 38.825 22.7101 37.625C23.8601 36.375 24.7351 34.75 25.3351 32.75C25.9851 30.75 26.3101 28.275 26.3101 25.325C26.3101 22.425 25.9851 20 25.3351 18.05C24.7351 16.05 23.8601 14.475 22.7101 13.325C21.6101 12.125 20.2601 11.275 18.6601 10.775C17.1101 10.275 15.3851 10.025 13.4851 10.025H11.6851V41.075ZM47.2058 50V1.1H79.6058V10.4H58.3058V20.225H76.3808V29.45H58.3058V40.7H80.3558V50H47.2058ZM111.001 50.9C107.851 50.9 104.901 50.375 102.151 49.325C99.4515 48.225 97.0765 46.625 95.0265 44.525C93.0265 42.425 91.4515 39.825 90.3015 36.725C89.1515 33.575 88.5765 29.95 88.5765 25.85C88.5765 21.75 89.1515 18.125 90.3015 14.975C91.5015 11.775 93.1015 9.1 95.1015 6.95C97.1515 4.75 99.5515 3.075 102.301 1.925C105.051 0.774997 108.001 0.199997 111.151 0.199997C114.451 0.199997 117.251 0.849998 119.551 2.15C121.901 3.4 123.876 4.825 125.476 6.425L119.401 13.25C118.351 12.2 117.201 11.35 115.951 10.7C114.701 10.05 113.101 9.725 111.151 9.725C109.551 9.725 108.076 10.1 106.726 10.85C105.376 11.55 104.201 12.575 103.201 13.925C102.201 15.275 101.401 16.925 100.801 18.875C100.251 20.825 99.9765 23.025 99.9765 25.475C99.9765 30.525 100.926 34.45 102.826 37.25C104.776 40 107.701 41.375 111.601 41.375C112.551 41.375 113.451 41.25 114.301 41C115.151 40.75 115.851 40.375 116.401 39.875V31.475H109.276V22.475H126.301V44.975C124.651 46.525 122.476 47.9 119.776 49.1C117.076 50.3 114.151 50.9 111.001 50.9ZM152.747 50.9C149.847 50.9 147.172 50.35 144.722 49.25C142.322 48.15 140.247 46.525 138.497 44.375C136.797 42.225 135.472 39.575 134.522 36.425C133.572 33.225 133.097 29.525 133.097 25.325C133.097 21.225 133.572 17.625 134.522 14.525C135.472 11.375 136.797 8.75 138.497 6.65C140.247 4.5 142.322 2.9 144.722 1.85C147.172 0.749998 149.847 0.199997 152.747 0.199997C155.647 0.199997 158.297 0.749998 160.697 1.85C163.147 2.9 165.222 4.5 166.922 6.65C168.672 8.75 170.022 11.375 170.972 14.525C171.922 17.625 172.397 21.225 172.397 25.325C172.397 29.525 171.922 33.225 170.972 36.425C170.022 39.575 168.672 42.225 166.922 44.375C165.222 46.525 163.147 48.15 160.697 49.25C158.297 50.35 155.647 50.9 152.747 50.9ZM152.747 41.375C155.297 41.375 157.322 40.025 158.822 37.325C160.322 34.625 161.072 30.625 161.072 25.325C161.072 20.225 160.322 16.35 158.822 13.7C157.322 11.05 155.297 9.725 152.747 9.725C150.197 9.725 148.172 11.05 146.672 13.7C145.172 16.35 144.422 20.225 144.422 25.325C144.422 30.625 145.172 34.625 146.672 37.325C148.172 40.025 150.197 41.375 152.747 41.375ZM197.568 50.9C194.268 50.9 190.993 50.325 187.743 49.175C184.543 47.975 181.618 46.2 178.968 43.85L185.343 36.275C187.193 37.775 189.218 39 191.418 39.95C193.618 40.9 195.918 41.375 198.318 41.375C200.718 41.375 202.468 40.975 203.568 40.175C204.668 39.375 205.218 38.35 205.218 37.1C205.218 36.25 205.043 35.55 204.693 35C204.343 34.4 203.843 33.875 203.193 33.425C202.543 32.975 201.743 32.55 200.793 32.15C199.843 31.75 198.793 31.3 197.643 30.8L191.343 28.1C189.993 27.6 188.668 26.95 187.368 26.15C186.118 25.35 185.018 24.425 184.068 23.375C183.118 22.275 182.343 21.025 181.743 19.625C181.193 18.175 180.918 16.55 180.918 14.75C180.918 12.75 181.343 10.875 182.193 9.125C183.093 7.325 184.318 5.775 185.868 4.475C187.468 3.125 189.368 2.075 191.568 1.325C193.768 0.574997 196.193 0.199997 198.843 0.199997C201.843 0.199997 204.743 0.749998 207.543 1.85C210.343 2.95 212.868 4.55 215.118 6.65L209.493 13.625C207.793 12.375 206.093 11.425 204.393 10.775C202.693 10.075 200.643 9.725 198.243 9.725C196.393 9.725 194.893 10.1 193.743 10.85C192.643 11.6 192.093 12.7 192.093 14.15C192.093 15.6 192.818 16.725 194.268 17.525C195.768 18.275 197.718 19.075 200.118 19.925L206.043 22.475C209.293 23.675 211.843 25.325 213.693 27.425C215.593 29.525 216.543 32.3 216.543 35.75C216.543 37.8 216.118 39.75 215.268 41.6C214.418 43.4 213.193 45 211.593 46.4C209.993 47.75 208.018 48.85 205.668 49.7C203.318 50.5 200.618 50.9 197.568 50.9ZM224.989 50V1.1H236.014V19.925H249.364V1.1H260.389V50H249.364V29.6H236.014V50H224.989Z" fill="white"/>
</svg>
