<svg width="400" height="125.00000000000001" xmlns="http://www.w3.org/2000/svg" version="1.1" xml:space="preserve">
 <g>
  <title>Layer 1</title>
  <g id="svg_1">
   <g id="svg_16">
    <path d="m11.95199,90.17456l12.99,-75.04l22.06,0.05c6.49,0 12.16,1.71 17.01,5.13c4.84,3.42 8.28,8.08 10.31,13.99c1.75,5.19 2.28,10.79 1.6,16.8l-0.36,3.14c-0.93,6.73 -3.16,12.83 -6.7,18.3c-3.54,5.46 -8.09,9.75 -13.66,12.86c-5.57,3.11 -11.58,4.7 -18.04,4.77l-25.21,0zm28.25,-61.12l-8.19,47.16l5.15,0.05c6.05,0 10.9,-2.34 14.56,-7.01c3.66,-4.67 5.83,-11.82 6.52,-21.44l0.1,-1.7c0.24,-5.5 -0.62,-9.67 -2.58,-12.52c-1.96,-2.85 -4.9,-4.35 -8.81,-4.48l-6.75,-0.06z" id="svg_17" fill="#ffffff"/>
    <path d="m105.60199,91.20456c-4.98,-0.03 -9.42,-1.21 -13.32,-3.53c-3.9,-2.32 -6.85,-5.55 -8.84,-9.69c-1.99,-4.14 -2.78,-8.7 -2.37,-13.68l0.15,-1.44c0.93,-9.17 4.11,-16.43 9.56,-21.77c5.45,-5.34 12.12,-7.91 20.02,-7.7c4.78,0.07 8.86,1.28 12.27,3.64c3.4,2.36 5.89,5.61 7.47,9.75c1.58,4.15 2.1,8.8 1.55,13.96l-0.98,7.07l-33.19,0c0.07,2.92 0.89,5.29 2.47,7.11c1.58,1.82 3.88,2.78 6.91,2.89c4.91,0.14 9.33,-1.75 13.24,-5.67l7.11,9.41c-2.1,2.98 -5.02,5.32 -8.79,7.02c-3.76,1.7 -7.88,2.58 -12.34,2.65l-0.92,0l0,-0.02zm4.12,-44.43c-2.41,-0.07 -4.49,0.68 -6.26,2.26c-1.77,1.57 -3.31,4.21 -4.61,7.9l16.96,0l0.31,-1.49c0.21,-1.2 0.24,-2.32 0.1,-3.38c-0.59,-3.42 -2.76,-5.18 -6.5,-5.29z" id="svg_18" fill="#ffffff"/>
    <path d="m137.03199,62.18456c0.65,-5.6 2.19,-10.67 4.61,-15.2c2.42,-4.54 5.45,-7.96 9.1,-10.28c3.64,-2.32 7.76,-3.44 12.37,-3.38c5.6,0.14 9.83,2.15 12.68,6.03l1.8,-5l15.67,0.05l-9.12,53.6c-1.03,7.56 -4.35,13.52 -9.95,17.88c-5.6,4.36 -12.57,6.44 -20.92,6.24c-3.71,-0.07 -7.3,-0.81 -10.77,-2.22c-3.47,-1.41 -6.44,-3.54 -8.92,-6.39l8.04,-10c2.99,3.78 6.87,5.72 11.65,5.82c7.52,0.14 12.3,-3.87 14.33,-12.01l0.41,-1.7c-3.85,3.78 -8.09,5.63 -12.73,5.57c-3.57,-0.03 -6.72,-0.94 -9.43,-2.71c-2.71,-1.77 -4.84,-4.32 -6.39,-7.65c-1.55,-3.33 -2.42,-7.04 -2.63,-11.13c-0.14,-2.05 -0.07,-4.56 0.2,-7.52zm16.75,5.52c0,3.16 0.57,5.62 1.7,7.37c1.13,1.75 2.78,2.66 4.95,2.73c3.2,0.14 6.1,-1.1 8.71,-3.71l4.38,-23.66c-1.37,-2.4 -3.68,-3.64 -6.91,-3.71c-3.3,-0.07 -6.06,1.33 -8.3,4.2c-2.23,2.87 -3.64,6.64 -4.23,11.31c-0.19,2.17 -0.3,3.99 -0.3,5.47z" id="svg_19" fill="#ffffff"/>
    <path d="m226.09199,33.37456c4.98,0.07 9.29,1.31 12.94,3.74c3.64,2.42 6.31,5.8 8.01,10.13c1.7,4.33 2.31,9.14 1.83,14.43l-0.1,1.13c-0.96,8.56 -4.14,15.46 -9.53,20.72c-5.39,5.26 -12.06,7.82 -20,7.68c-4.95,-0.07 -9.23,-1.3 -12.83,-3.68c-3.61,-2.39 -6.28,-5.73 -8.01,-10.02c-1.74,-4.29 -2.36,-9.07 -1.88,-14.33c0.86,-9.14 3.99,-16.42 9.41,-21.85c5.39,-5.44 12.12,-8.08 20.16,-7.95zm-12.63,29.82l-0.15,3.04c-0.48,7.65 1.86,11.54 7.01,11.68c6.67,0.21 10.53,-5.2 11.6,-16.21l0.21,-4.68c0.07,-3.09 -0.51,-5.55 -1.73,-7.38c-1.22,-1.83 -3.01,-2.79 -5.39,-2.86c-3.13,-0.1 -5.69,1.17 -7.7,3.83c-2.02,2.66 -3.3,6.85 -3.85,12.58z" id="svg_20" fill="#ffffff"/>
    <path d="m283.04199,74.19456c0.45,-2.27 -1.31,-3.97 -5.26,-5.1l-3.66,-0.93c-5.98,-1.58 -10.36,-3.8 -13.14,-6.65c-2.78,-2.85 -4.09,-6.24 -3.92,-10.15c0.17,-5.36 2.55,-9.71 7.14,-13.06c4.59,-3.35 10.18,-4.99 16.78,-4.92c6.56,0.07 11.88,1.74 15.95,5c4.07,3.26 6.14,7.66 6.21,13.19l-16.9,-0.05c0.14,-4.4 -1.8,-6.6 -5.82,-6.6c-1.72,0 -3.32,0.51 -4.79,1.52c-1.48,1.01 -2.35,2.36 -2.63,4.05c-0.58,2.78 1.87,4.69 7.37,5.72c4.78,1.13 8.47,2.45 11.08,3.94c2.61,1.49 4.6,3.34 5.98,5.54c1.37,2.2 2.01,4.84 1.91,7.94c-0.1,3.37 -1.2,6.37 -3.3,9.02c-2.1,2.65 -5.13,4.76 -9.1,6.34c-3.97,1.58 -8.27,2.32 -12.91,2.22c-4.02,-0.03 -7.76,-0.88 -11.21,-2.53c-3.45,-1.65 -6.15,-3.89 -8.09,-6.73c-1.94,-2.83 -2.95,-6.09 -3.01,-9.77l15.77,0.1c0.07,4.95 2.54,7.39 7.42,7.32c2.1,0 3.88,-0.47 5.36,-1.42c1.46,-0.94 2.39,-2.27 2.77,-3.99z" id="svg_21" fill="#ffffff"/>
    <path d="m329.11199,40.49456c4.16,-4.84 8.95,-7.23 14.38,-7.16c5.6,0.14 9.75,2.18 12.45,6.13c2.7,3.95 3.67,9.31 2.91,16.08l-5.77,34.63l-16.96,0l5.82,-34.88c0.14,-1.17 0.17,-2.27 0.1,-3.3c-0.24,-3.41 -2.13,-5.16 -5.67,-5.26c-3.06,-0.07 -5.77,1.05 -8.14,3.35l-7.11,40.09l-16.96,0l13.76,-79.16l16.96,0l-5.77,29.48z" id="svg_22" fill="#ffffff"/>
    <path d="m365.50199,82.33456c-0.07,-2.61 0.82,-4.78 2.68,-6.49c1.86,-1.72 4.07,-2.58 6.65,-2.58c2.54,0 4.71,0.78 6.49,2.35c1.79,1.56 2.71,3.6 2.78,6.11c0.07,2.58 -0.81,4.73 -2.63,6.47c-1.82,1.74 -4.05,2.6 -6.7,2.6c-2.61,0 -4.79,-0.79 -6.55,-2.37c-1.74,-1.58 -2.65,-3.61 -2.72,-6.09z" id="svg_23" fill="#ffffff"/>
   </g>
  </g>
  <g stroke="null">
   <path stroke="null" fill="white" d="m308.41688,106.67438l3.64414,-6.19995l3.81327,0l-6.22227,9.33963l-0.8641,4.99179l-3.44691,0l0.9298,-5.31359l-2.88347,-9.0038l3.5268,-0.00946l1.50275,6.1954z"/>
   <path stroke="null" fill="white" d="m318.80872,114.80585c-0.09393,-0.2566 -0.13608,-0.57858 -0.13608,-0.96576c-0.73271,0.8024 -1.60618,1.18502 -2.62523,1.16171c-0.9298,-0.01402 -1.70466,-0.32198 -2.31989,-0.92387c-0.61509,-0.60171 -0.90157,-1.33418 -0.8641,-2.19723c0.03292,-1.15698 0.51662,-2.04334 1.45592,-2.66381c0.93917,-0.62047 2.22114,-0.92842 3.84605,-0.92842l1.08956,0.01875l0.11734,-0.60189l0.0376,-0.52249c-0.02823,-0.59716 -0.32876,-0.90494 -0.9017,-0.92369c-0.71384,-0.01402 -1.15526,0.37789 -1.31957,1.171l-3.26856,0.00929c0.03292,-0.71371 0.26774,-1.33891 0.70448,-1.86596c0.43673,-0.52722 1.02841,-0.93316 1.77986,-1.22236c0.75131,-0.28447 1.54503,-0.41978 2.39027,-0.39647c0.81246,0.01858 1.5263,0.18649 2.13671,0.50847c0.61055,0.32198 1.0707,0.76034 1.37136,1.32963c0.3052,0.56911 0.41787,1.22218 0.34749,1.96394l-0.80309,5.01037l-0.05165,0.61118c-0.02823,0.48516 0.0376,0.90038 0.18786,1.24094l-0.00937,0.18667l-3.16526,0zm-1.8596,-2.14605c0.66688,0.02804 1.25387,-0.26589 1.75162,-0.87707l0.32876,-1.71207l-0.84055,-0.00929c-0.5213,0.01402 -0.97222,0.16791 -1.3478,0.45711c-0.37572,0.29393 -0.5965,0.6904 -0.6622,1.19431c-0.03292,0.27062 0.01873,0.48989 0.15494,0.66236c0.13153,0.17738 0.33812,0.27062 0.61523,0.28464z"/>
   <path stroke="null" fill="white" d="m329.00911,111.75469c0.08456,-0.4338 -0.25356,-0.7556 -1.00968,-0.97487l-0.70434,-0.17738c-1.15058,-0.30322 -1.99113,-0.723 -2.52648,-1.26881c-0.53535,-0.54598 -0.78436,-1.18976 -0.75144,-1.9408c0.03292,-1.02167 0.48838,-1.85667 1.37122,-2.4959c0.88297,-0.63905 1.95835,-0.95174 3.22627,-0.94227c1.26324,0.01402 2.28229,0.33109 3.06651,0.95629c0.78422,0.6252 1.17881,1.46494 1.19286,2.51921l-3.24969,-0.00929c0.0281,-0.83974 -0.34749,-1.25969 -1.11766,-1.25969c-0.32876,0 -0.63864,0.09798 -0.92044,0.28938c-0.28179,0.19122 -0.45092,0.45238 -0.50725,0.77436c-0.11266,0.53178 0.36167,0.89565 1.41832,1.0916c0.92044,0.21453 1.62946,0.46658 2.13203,0.75105c0.50243,0.28464 0.88752,0.63922 1.15044,1.059c0.26306,0.41996 0.38509,0.92369 0.36636,1.51629c-0.01887,0.64378 -0.23014,1.21763 -0.63396,1.72136c-0.40396,0.50391 -0.98627,0.90967 -1.74694,1.20834c-0.76081,0.30322 -1.592,0.44309 -2.48433,0.42451c-0.77486,-0.00473 -1.49325,-0.16791 -2.15544,-0.4806c-0.6622,-0.31251 -1.18336,-0.74176 -1.5544,-1.28283c-0.37104,-0.54124 -0.56826,-1.16171 -0.57763,-1.86614l3.03373,0.01875c0.01405,0.947 0.48838,1.40885 1.42755,1.39956c0.40382,0 0.74662,-0.08869 1.02841,-0.27062c0.28179,-0.18193 0.45092,-0.4338 0.52598,-0.76051z"/>
   <path stroke="null" fill="white" d="m337.51794,105.31689c0.79827,-0.92369 1.71871,-1.38098 2.76599,-1.36696c1.07538,0.02804 1.87365,0.41522 2.39027,1.171c0.51662,0.75578 0.70434,1.77745 0.55876,3.06957l-1.10816,6.61535l-3.25919,0l1.11766,-6.66197c0.02823,-0.22382 0.03292,-0.4338 0.01887,-0.62976c-0.04697,-0.64851 -0.40864,-0.98434 -1.08956,-1.00309c-0.587,-0.01385 -1.1083,0.20069 -1.56376,0.63922l-1.36654,7.6556l-3.25905,0l2.64382,-15.1198l3.25905,0l-1.10816,5.63084z"/>
   <path stroke="null" fill="white" d="m349.71002,114.80585c-0.09393,-0.2566 -0.13621,-0.57858 -0.13621,-0.96576c-0.73257,0.8024 -1.60604,1.18502 -2.62509,1.16171c-0.9298,-0.01402 -1.70466,-0.32198 -2.31989,-0.92387c-0.61509,-0.60171 -0.90157,-1.33418 -0.86397,-2.19723c0.03278,-1.15698 0.51648,-2.04334 1.45578,-2.66381c0.93917,-0.62047 2.21645,-0.92842 3.84605,-0.92842l1.08943,0.01875l0.11748,-0.60189l0.03746,-0.52249c-0.0281,-0.59716 -0.32862,-0.90494 -0.90157,-0.92369c-0.71384,-0.01402 -1.15526,0.37789 -1.31957,1.171l-3.26856,0.00929c0.03292,-0.71371 0.26774,-1.33891 0.70448,-1.86596c0.43673,-0.52722 1.02841,-0.93316 1.77986,-1.22236c0.75131,-0.28447 1.54489,-0.41978 2.39027,-0.39647c0.81246,0.01858 1.52148,0.18649 2.13671,0.50847c0.61041,0.31725 1.0707,0.76034 1.37122,1.32963c0.3052,0.56911 0.418,1.22218 0.34749,1.96394l-0.80295,5.01037l-0.05165,0.61118c-0.02823,0.48516 0.03746,0.90038 0.18772,1.24094l-0.00937,0.18667l-3.16512,0zm-1.86428,-2.14605c0.66674,0.02804 1.24905,-0.26589 1.75162,-0.87707l0.32876,-1.71207l-0.84069,-0.00929c-0.52116,0.01402 -0.97208,0.16791 -1.3478,0.45711c-0.37558,0.29393 -0.59636,0.6904 -0.66206,1.19431c-0.03292,0.27062 0.01873,0.48989 0.15494,0.66236c0.13153,0.17738 0.33812,0.27062 0.61523,0.28464z"/>
   <path stroke="null" fill="white" d="m234.92833,114.62847l2.14612,-12.27879l3.28726,0c0.77017,0.00929 1.45578,0.18193 2.06165,0.5132c0.60573,0.33127 1.08474,0.80713 1.4416,1.4276c0.35699,0.62047 0.5589,1.31087 0.61055,2.08523c0.0281,0.47131 0.00468,0.94245 -0.0752,1.41831l-0.23001,1.35749c-0.17381,1.03096 -0.54485,1.96412 -1.10361,2.79912c-0.5589,0.83974 -1.25856,1.49281 -2.08974,1.96394c-0.83119,0.47131 -1.71884,0.70916 -2.66737,0.71845l-3.38123,-0.00456zm2.53119,-11.82623l-1.98643,11.36895l2.70963,0c1.35717,0 2.55471,-0.47587 3.58781,-1.42287c1.0331,-0.947 1.68593,-2.17865 1.95821,-3.6995l0.23951,-1.34347c0.10812,-0.6252 0.1128,-1.22692 0.0095,-1.81478c-0.17381,-0.93771 -0.58231,-1.68403 -1.22109,-2.2393c-0.63864,-0.55509 -1.42755,-0.83974 -2.36203,-0.85376l-2.9351,0l0,0.00473z"/>
   <path stroke="null" fill="white" d="m246.40134,114.62865l-0.46015,0l1.57781,-9.12509l0.46029,0l-1.57795,9.12509zm1.39009,-11.99415c0.01873,-0.112 0.07988,-0.21471 0.18318,-0.31269c0.1033,-0.0978 0.21596,-0.1446 0.33344,-0.1446c0.13139,0 0.23483,0.05136 0.31925,0.15407c0.08456,0.10254 0.1128,0.21453 0.08925,0.33582c-0.01873,0.112 -0.07988,0.21453 -0.18786,0.30796c-0.10798,0.09325 -0.22064,0.13987 -0.33812,0.13987c-0.13139,-0.00456 -0.23483,-0.05591 -0.31457,-0.15389c-0.07988,-0.09325 -0.10798,-0.20069 -0.08456,-0.32653z"/>
   <path stroke="null" fill="white" d="m255.36577,112.39391c0.20191,-1.059 -0.57295,-1.80549 -2.32457,-2.25332l-0.94399,-0.27062c-1.30084,-0.41978 -1.87365,-1.16627 -1.71402,-2.23456c0.1033,-0.6904 0.46965,-1.25023 1.10361,-1.67018c0.63396,-0.41978 1.37122,-0.63449 2.20709,-0.63449c0.92044,0 1.64364,0.23802 2.16494,0.70916c0.5213,0.47114 0.74194,1.10563 0.66206,1.89874l-0.46015,0c0.07038,-0.63922 -0.12216,-1.16171 -0.56826,-1.55818c-0.4461,-0.39647 -1.04246,-0.59242 -1.7939,-0.59242c-0.72321,0 -1.35717,0.16791 -1.89252,0.49918c-0.54003,0.33109 -0.85928,0.77436 -0.9674,1.33418c-0.16899,0.89565 0.35231,1.53014 1.5639,1.90803l1.26324,0.36387l0.42255,0.1446c1.31971,0.47587 1.8972,1.26898 1.73289,2.37005c-0.10798,0.72774 -0.48838,1.30614 -1.13639,1.74012c-0.64815,0.4338 -1.42769,0.65307 -2.33394,0.65307c-0.94399,0 -1.70011,-0.22856 -2.26824,-0.68585c-0.56358,-0.45711 -0.80777,-1.059 -0.72789,-1.80076l0.45078,0c-0.02823,0.62976 0.18318,1.12438 0.63396,1.48825c0.45078,0.36387 1.08474,0.5458 1.90657,0.5458c0.77954,-0.01858 1.45578,-0.20525 2.01937,-0.55982c0.56358,-0.36387 0.89702,-0.82571 1.00032,-1.39483z"/>
   <path stroke="null" fill="white" d="m258.43242,114.62865l-0.46029,0l1.57795,-9.12509l0.46015,0l-1.57781,9.12509zm1.39009,-11.99415c0.01873,-0.112 0.07974,-0.21471 0.18304,-0.31269c0.10343,-0.0978 0.21609,-0.1446 0.33344,-0.1446c0.13153,0 0.23483,0.05136 0.31939,0.15407c0.08456,0.10254 0.11266,0.21453 0.08925,0.33582c-0.01887,0.112 -0.07988,0.21453 -0.18786,0.30796c-0.10798,0.09325 -0.22078,0.13987 -0.33812,0.13987c-0.13153,-0.00456 -0.23483,-0.05591 -0.31471,-0.15389c-0.07974,-0.09325 -0.10798,-0.20069 -0.08443,-0.32653z"/>
   <path stroke="null" fill="white" d="m261.79918,109.97268c0.15963,-0.9144 0.43673,-1.73556 0.83587,-2.46329c0.39914,-0.72774 0.88284,-1.26881 1.44642,-1.63285c0.56358,-0.36387 1.18336,-0.5458 1.85024,-0.5458c0.6622,0 1.23032,0.16335 1.69997,0.49462c0.47433,0.33109 0.81246,0.77909 1.01437,1.34347l0.3052,-1.67001l0.46029,0l-1.52162,8.80312c-0.21596,1.25496 -0.68561,2.23456 -1.4135,2.93899c-0.72789,0.70442 -1.60136,1.059 -2.62041,1.059c-1.15994,0 -2.06151,-0.51776 -2.70015,-1.55345l0.34749,-0.2892c0.58231,0.92369 1.35717,1.38554 2.32457,1.38554c0.88284,0 1.64364,-0.29393 2.2776,-0.88653c0.63864,-0.59242 1.06133,-1.42743 1.27729,-2.50519l0.25356,-1.26881c-0.4085,0.5132 -0.8922,0.90967 -1.45578,1.18958c-0.56344,0.27991 -1.17399,0.41978 -1.83619,0.41978c-0.60104,0 -1.10348,-0.14916 -1.51211,-0.44309c-0.4085,-0.29393 -0.70902,-0.72774 -0.90639,-1.29685c-0.19723,-0.56929 -0.28165,-1.19905 -0.25824,-1.88489c0.02355,-0.31707 0.06583,-0.71371 0.13153,-1.19414zm0.3428,1.07285c-0.0752,1.02167 0.07988,1.8288 0.46015,2.41667c0.3804,0.58769 0.96272,0.88163 1.73757,0.88163c0.72789,0 1.39009,-0.1772 1.97708,-0.53651c0.587,-0.35914 1.0707,-0.85831 1.44173,-1.50683l0.74662,-4.14259c-0.11266,-0.7698 -0.38977,-1.35749 -0.83587,-1.76343c-0.4461,-0.40593 -1.02373,-0.60645 -1.73757,-0.60645c-0.72321,0 -1.37122,0.24258 -1.9348,0.72774c-0.56344,0.48516 -1.005,1.14769 -1.31489,1.99198c-0.30989,0.83974 -0.48838,1.68876 -0.54003,2.53779z"/>
   <path stroke="null" fill="white" d="m272.38865,107.62612c0.46015,-0.7372 1.00018,-1.30158 1.62009,-1.69823c0.61991,-0.39647 1.26324,-0.59716 1.92543,-0.59716c0.69966,0 1.25387,0.18193 1.65769,0.54124c0.40396,0.35914 0.63396,0.88163 0.69511,1.55818c0.03278,0.42907 0.00937,0.87234 -0.06583,1.33891l-1.01905,5.85466l-0.46015,0l1.01905,-5.84537c0.0657,-0.39191 0.09861,-0.77909 0.08443,-1.16171c-0.0281,-0.59716 -0.20659,-1.04954 -0.53053,-1.36678c-0.32407,-0.31269 -0.78904,-0.47114 -1.39477,-0.46185c-0.77486,0.00929 -1.52162,0.31251 -2.23546,0.89565c-0.71371,0.58787 -1.20209,1.28756 -1.45578,2.10398l-1.01905,5.84082l-0.46015,0l1.57781,-9.12509l0.46029,0l-0.39914,2.12274z"/>
   <path stroke="null" fill="white" d="m287.6606,114.79656c-0.63396,0 -1.19754,-0.13531 -1.68593,-0.41522c-0.48838,-0.27535 -0.85474,-0.67656 -1.08943,-1.19905l-0.26306,1.44163l-0.46015,0l2.24937,-12.95517l0.46029,0l-0.98627,5.4908c0.42269,-0.59242 0.92044,-1.04498 1.4887,-1.35749c0.56826,-0.31251 1.18336,-0.47114 1.83619,-0.47114c0.59636,0 1.09893,0.1446 1.52148,0.43853c0.42269,0.29393 0.72321,0.71845 0.92044,1.28756c0.19723,0.56438 0.28179,1.18958 0.25838,1.87543c-0.01887,0.35914 -0.05165,0.70442 -0.10343,1.03569l-0.10798,0.55509c-0.29584,1.32016 -0.79827,2.36532 -1.51211,3.12565c-0.70916,0.7698 -1.5544,1.14769 -2.52648,1.14769zm3.67706,-4.82388l0.1033,-0.90038c0.04697,-0.61118 -0.00937,-1.18029 -0.15494,-1.70278c-0.14558,-0.52249 -0.40396,-0.9144 -0.75613,-1.18029c-0.35217,-0.26589 -0.7889,-0.39647 -1.30552,-0.39647c-0.75131,0 -1.46047,0.22382 -2.12734,0.67638c-0.66688,0.44782 -1.11298,1.00765 -1.3383,1.67018l-0.75613,4.18466c0.13621,0.65307 0.44142,1.15225 0.91107,1.50209c0.47433,0.35002 1.05183,0.52249 1.74694,0.52249c0.91107,0 1.68593,-0.37316 2.31989,-1.11492c0.63396,-0.74176 1.07538,-1.76816 1.32425,-3.0743l0.03292,-0.18667z"/>
   <path stroke="null" fill="white" d="m296.22686,113.91932l0.08443,-0.1772l4.52711,-8.22945l0.51648,0l-5.80895,10.65067c-0.418,0.78838 -0.84537,1.33874 -1.27274,1.65598c-0.42723,0.31725 -0.90625,0.4806 -1.43691,0.49462c-0.21609,0 -0.44142,-0.03278 -0.68093,-0.09342l0.05165,-0.43853c0.29116,0.05136 0.47902,0.07467 0.57763,0.07467c0.75131,0 1.40414,-0.41522 1.95353,-1.24549l0.33812,-0.55527l0.82182,-1.52541l-1.98645,-9.0364l0.4837,0l1.8315,8.42523z"/>
  </g>
 </g>

</svg>