<svg width="31" height="21" xmlns="http://www.w3.org/2000/svg" version="1.1">
 <g>
  <title>Layer 1</title>
  <g id="svg_1" stroke="null">
   <path id="svg_2" d="m18.04393,11.7503l0,5.20782l-5.13327,0l0,-5.20782l-3.84995,0l6.41659,-6.50977l6.41659,6.50977m3.0158,-3.8668c-0.87266,-4.47872 -4.76111,-7.85079 -9.43238,-7.85079c-3.70879,0 -6.92991,2.13521 -8.53406,5.24688c-3.86279,0.42964 -6.86575,3.73661 -6.86575,7.77267a7.6999,7.81173 0 0 0 7.6999,7.81173l16.68313,0a6.41659,6.50977 0 0 0 6.41659,-6.50977c0,-3.43716 -2.6308,-6.22335 -5.96743,-6.47071l0,-0.00001z" fill="#ffffff" stroke="null"/>
  </g>
 </g>

</svg>